<?xml version="1.0" encoding="utf-8"?>
<!-- Generator: Adobe Illustrator 23.0.4, SVG Export Plug-In . SVG Version: 6.00 Build 0)  -->
<svg version="1.1" id="Layer_1" xmlns="http://www.w3.org/2000/svg" xmlns:xlink="http://www.w3.org/1999/xlink" x="0px" y="0px"
	 viewBox="0 0 612 792" style="enable-background:new 0 0 612 792;" xml:space="preserve">
<style type="text/css">
	.st0{fill:none;stroke:#000000;stroke-miterlimit:10;}
	.st1{fill:#FFFFFF;stroke:#000000;stroke-miterlimit:10;}
	.st2{fill:none;}
	.st3{font-family:'Helvetica-Light';}
	.st4{font-size:13px;}
</style>
<g id="follow">
	<path class="st0" d="M317.135803,430.874023l-53.571014,147.487061L84.705719,408.887207l49.298508-188.39183l179.615982,42.730515
		l173.355865-17.089935l52.890808,143.188049l-60.808929,137.911407L317.135803,430.874023z"/>
</g>
<g id="House">
	<g>
		<rect x="120.36731" y="210.821548" class="st1" width="36.947731" height="22.858438"/>
		<rect x="134.004227" y="220.495377" class="st1" width="9.673901" height="13.040504"/>
		<polygon class="st1" points="120.612389,210.594757 138.844727,199.500137 157.069962,210.606445 		"/>
		<path class="st1" d="M152.980927,202.292236l-0.361053-0.229019c-0.628021-0.398361-1.460083-0.212189-1.858444,0.415833
			l-1.881668,2.966492l2.829987,1.795074l1.758194-2.771835C153.934494,203.733261,153.716446,202.758789,152.980927,202.292236z"/>
	</g>
	<g>
		<rect x="299.983276" y="253.552063" class="st1" width="36.947731" height="22.858438"/>
		<rect x="313.620209" y="263.225891" class="st1" width="9.673901" height="13.040504"/>
		<polygon class="st1" points="300.228363,253.325272 318.460693,242.230652 336.685944,253.33696 		"/>
		<path class="st1" d="M332.596893,245.022766l-0.361053-0.229034c-0.628021-0.398361-1.460083-0.212173-1.858429,0.415848
			l-1.881683,2.966476l2.829987,1.795074l1.758209-2.771835C333.550476,246.463776,333.332428,245.489304,332.596893,245.022766z"/>
	</g>
	<g>
		<rect x="473.339172" y="236.462143" class="st1" width="36.947731" height="22.858438"/>
		<rect x="486.976074" y="246.135956" class="st1" width="9.673901" height="13.040504"/>
		<polygon class="st1" points="473.584229,236.235352 491.816589,225.140732 510.041809,236.24704 		"/>
		<path class="st1" d="M505.952789,227.932831l-0.361084-0.229019c-0.628021-0.398361-1.460052-0.212189-1.858429,0.415833
			l-1.881653,2.966476l2.829956,1.79509l1.758209-2.771835C506.906342,229.373856,506.688293,228.399384,505.952789,227.932831z"/>
	</g>
	<g>
		<rect x="521.393005" y="373.129913" class="st1" width="36.947731" height="22.858438"/>
		<rect x="535.029907" y="382.803741" class="st1" width="9.673901" height="13.040504"/>
		<polygon class="st1" points="521.638123,372.903137 539.870422,361.808502 558.095703,372.914825 		"/>
		<path class="st1" d="M554.006653,364.600616l-0.361084-0.229034c-0.627991-0.398346-1.460083-0.212158-1.858398,0.415863
			l-1.881714,2.966461l2.830017,1.795074l1.758179-2.77182C554.960205,366.041626,554.742188,365.067169,554.006653,364.600616z"/>
	</g>
	<g>
		<rect x="460.584106" y="511.041351" class="st1" width="36.947731" height="22.858438"/>
		<rect x="474.221008" y="520.715149" class="st1" width="9.673901" height="13.040504"/>
		<polygon class="st1" points="460.829163,510.814545 479.061523,499.71994 497.286743,510.826233 		"/>
		<path class="st1" d="M493.197723,502.512054l-0.361084-0.229034c-0.628021-0.398376-1.460052-0.212189-1.858429,0.415833
			l-1.881653,2.966492l2.829987,1.795074l1.758179-2.771851C494.151276,503.953064,493.933228,502.978577,493.197723,502.512054z"/>
	</g>
	<g>
		<rect x="245.090927" y="562.166992" class="st1" width="36.947731" height="22.858438"/>
		<rect x="258.727844" y="571.84082" class="st1" width="9.673901" height="13.040504"/>
		<polygon class="st1" points="245.336014,561.940247 263.568359,550.845581 281.793579,561.951904 		"/>
		<path class="st1" d="M277.704559,553.637695l-0.361084-0.229004c-0.628021-0.398376-1.460052-0.212219-1.858429,0.415833
			l-1.881653,2.966492l2.829987,1.795044l1.758179-2.77179C278.658112,555.078735,278.440063,554.104248,277.704559,553.637695z"/>
	</g>
	<g>
		<rect x="71.068802" y="399.213379" class="st1" width="36.947731" height="22.858438"/>
		<rect x="84.705719" y="408.887207" class="st1" width="9.673901" height="13.040504"/>
		<polygon class="st1" points="71.313881,398.986603 89.546227,387.891968 107.771454,398.998291 		"/>
		<path class="st1" d="M103.682419,390.684082l-0.361061-0.229034c-0.628021-0.398346-1.460068-0.212158-1.858429,0.415863
			l-1.881668,2.966461l2.829971,1.795074l1.758209-2.77182C104.635986,392.125092,104.417938,391.150635,103.682419,390.684082z"/>
	</g>
</g>
<g id="Warehouse">
	<g>
		<g>
			<rect x="293.222229" y="364.928162" class="st1" width="42.681187" height="30.719378"/>
			<rect x="303.006653" y="378.5224" class="st1" width="24.156839" height="17.125135"/>
			<rect x="303.006653" y="380.299622" class="st1" width="24.156839" height="2.712621"/>
			<rect x="303.006653" y="383.012238" class="st1" width="24.156839" height="2.712621"/>
			<rect x="303.006653" y="385.724854" class="st1" width="24.156839" height="2.712621"/>
			<rect x="303.006653" y="388.437469" class="st1" width="24.156839" height="2.712621"/>
			<rect x="303.006653" y="391.150085" class="st1" width="24.156839" height="2.712621"/>
			<rect x="291.106232" y="362.149323" class="st1" width="46.576508" height="2.778823"/>
		</g>
		<g>
			<rect x="326.626831" y="378.898438" class="st1" width="53.531277" height="38.528625"/>
			<rect x="338.89856" y="395.948517" class="st1" width="30.29781" height="21.478559"/>
			<rect x="338.89856" y="398.17749" class="st1" width="30.29781" height="3.402203"/>
			<rect x="338.89856" y="401.579712" class="st1" width="30.29781" height="3.402203"/>
			<rect x="338.89856" y="404.981903" class="st1" width="30.29781" height="3.402203"/>
			<rect x="338.89856" y="408.384094" class="st1" width="30.29781" height="3.402203"/>
			<rect x="338.89856" y="411.786316" class="st1" width="30.29781" height="3.402203"/>
			<rect x="323.9729" y="375.413208" class="st1" width="58.41684" height="3.485235"/>
		</g>
		<g>
			<rect x="281.573486" y="390.910431" class="st1" width="77.018036" height="46.870979"/>
			<rect x="299.229401" y="411.652222" class="st1" width="43.590923" height="26.129169"/>
			<rect x="299.229401" y="414.363861" class="st1" width="43.590923" height="4.13886"/>
			<rect x="299.229401" y="418.502716" class="st1" width="43.590923" height="4.13886"/>
			<rect x="299.229401" y="422.641571" class="st1" width="43.590923" height="4.13886"/>
			<rect x="299.229401" y="426.780426" class="st1" width="43.590923" height="4.13886"/>
			<rect x="299.229401" y="430.919312" class="st1" width="43.590923" height="4.13886"/>
			<rect x="277.755157" y="386.670563" class="st1" width="84.047134" height="4.23987"/>
		</g>
	</g>
</g>
<g id="Layer_4">
	<rect x="286.365723" y="395.320923" class="st2" width="81.717361" height="27.23912"/>
	<text transform="matrix(1 0 0 1 286.365631 404.680756)" class="st3 st4">Warehouse</text>
</g>
<g id="Truck">
	<g>
		<rect x="284.926453" y="451.981476" class="st1" width="60.189301" height="2.940149"/>
		<path class="st1" d="M311.263306,457.892242h-8.976898c-1.4263,0-2.58255-1.15625-2.58255-2.58255v-3.358704h15.105988v2.394714
			C314.809845,456.304382,313.222015,457.892242,311.263306,457.892242z"/>
		<rect x="287.532288" y="448.744476" class="st1" width="59.88118" height="3.93216"/>
		<circle class="st1" cx="331.292603" cy="456.35788" r="7.613416"/>
		<path class="st1" d="M278.579834,420.559631h-1.672699h-6.359894c-0.433289,0-0.861115,0.096619-1.252319,0.282806
			l-0.515808,0.245483c-1.909576,0.908783-3.570892,2.266083-4.842194,3.956116l-3.594269,4.778107
			c-1.289062,1.713654-1.984894,3.789795-1.984894,5.922333v13.992401c0,1.623596,1.33667,2.939758,2.985535,2.939758h23.203461
			c1.648865,0,2.985535-1.316162,2.985535-2.939758v-1.065826v-16.210236v-5.528839c0-3.519348-2.89743-6.372345-6.471619-6.372345
			H278.579834z"/>
		<polygon class="st1" points="289.155823,452.676636 269.550751,452.676636 274.091614,445.773224 289.155823,445.773224 		"/>
		<circle class="st1" cx="278.534546" cy="456.35788" r="7.613416"/>
		<circle class="st1" cx="278.534546" cy="456.35788" r="3.806708"/>
		<circle class="st1" cx="331.292603" cy="456.35788" r="3.806708"/>
		<path class="st1" d="M345.115753,448.744476h-55.95993v-25.418671c0-5.700806,4.621399-10.322205,10.322205-10.322205h35.48526
			c5.607056,0,10.152466,4.54541,10.152466,10.152466V448.744476z"/>
		<path class="st1" d="M275.872986,424.784546h-0.908173h-3.453064c-0.235229,0-0.467529,0.036652-0.679932,0.107239
			l-0.28006,0.093109c-1.036804,0.344604-1.938812,0.859314-2.629028,1.500183l-1.951477,1.81189
			c-0.699921,0.649811-2.207245,2.48114-2.207245,3.289825v4.335449c0,0.615662,1.855286,1.04126,2.750519,1.04126h12.598175
			c0.895233,0,1.620972-0.499084,1.620972-1.114746v-0.404175v-6.147034v-2.096558c0-1.334564-1.573151-2.416443-3.513733-2.416443
			H275.872986z"/>
	</g>
</g>
</svg>
