<?xml version="1.0" encoding="utf-8"?>
<!-- Generator: Adobe Illustrator 23.0.4, SVG Export Plug-In . SVG Version: 6.00 Build 0)  -->
<svg version="1.1" id="Layer_1" xmlns="http://www.w3.org/2000/svg" xmlns:xlink="http://www.w3.org/1999/xlink" x="0px" y="0px"
	 viewBox="0 0 612 792" style="enable-background:new 0 0 612 792;" xml:space="preserve">
<style type="text/css">
	.st0{fill:none;stroke:#000000;stroke-miterlimit:10;}
	.st1{fill:#FFFFFF;stroke:#000000;stroke-miterlimit:10;}
	.st2{fill:none;}
	.st3{font-family:'Helvetica-Light';}
	.st4{font-size:13px;}
</style>
<g id="follow">
	<path class="st0" d="M317.135803,430.874023l-53.571014,147.487061L84.705719,408.887207l49.298508-188.39183l179.615982,42.730515
		l173.355865-17.089935l52.890808,143.188049l-60.808929,137.911407L317.135803,430.874023z"/>
</g>
<g id="House">
	<g>
		<rect x="120.36731" y="210.821548" class="st1" width="36.947731" height="22.858438"/>
		<rect x="134.004227" y="220.495377" class="st1" width="9.673901" height="13.040504"/>
		<polygon class="st1" points="120.612389,210.594757 138.844727,199.500137 157.069962,210.606445 		"/>
		<path class="st1" d="M152.980927,202.292236l-0.361053-0.229019c-0.628021-0.398361-1.460083-0.212189-1.858444,0.415833
			l-1.881668,2.966492l2.829987,1.795074l1.758194-2.771835C153.934494,203.733261,153.716446,202.758789,152.980927,202.292236z"/>
	</g>
	<g>
		<rect x="299.983276" y="253.552063" class="st1" width="36.947731" height="22.858438"/>
		<rect x="313.620209" y="263.225891" class="st1" width="9.673901" height="13.040504"/>
		<polygon class="st1" points="300.228363,253.325272 318.460693,242.230652 336.685944,253.33696 		"/>
		<path class="st1" d="M332.596893,245.022766l-0.361053-0.229034c-0.628021-0.398361-1.460083-0.212173-1.858429,0.415848
			l-1.881683,2.966476l2.829987,1.795074l1.758209-2.771835C333.550476,246.463776,333.332428,245.489304,332.596893,245.022766z"/>
	</g>
	<g>
		<rect x="473.339172" y="236.462143" class="st1" width="36.947731" height="22.858438"/>
		<rect x="486.976074" y="246.135956" class="st1" width="9.673901" height="13.040504"/>
		<polygon class="st1" points="473.584229,236.235352 491.816589,225.140732 510.041809,236.24704 		"/>
		<path class="st1" d="M505.952789,227.932831l-0.361084-0.229019c-0.628021-0.398361-1.460052-0.212189-1.858429,0.415833
			l-1.881653,2.966476l2.829956,1.79509l1.758209-2.771835C506.906342,229.373856,506.688293,228.399384,505.952789,227.932831z"/>
	</g>
	<g>
		<rect x="521.393005" y="373.129913" class="st1" width="36.947731" height="22.858438"/>
		<rect x="535.029907" y="382.803741" class="st1" width="9.673901" height="13.040504"/>
		<polygon class="st1" points="521.638123,372.903137 539.870422,361.808502 558.095703,372.914825 		"/>
		<path class="st1" d="M554.006653,364.600616l-0.361084-0.229034c-0.627991-0.398346-1.460083-0.212158-1.858398,0.415863
			l-1.881714,2.966461l2.830017,1.795074l1.758179-2.77182C554.960205,366.041626,554.742188,365.067169,554.006653,364.600616z"/>
	</g>
	<g>
		<rect x="460.584106" y="511.041351" class="st1" width="36.947731" height="22.858438"/>
		<rect x="474.221008" y="520.715149" class="st1" width="9.673901" height="13.040504"/>
		<polygon class="st1" points="460.829163,510.814545 479.061523,499.71994 497.286743,510.826233 		"/>
		<path class="st1" d="M493.197723,502.512054l-0.361084-0.229034c-0.628021-0.398376-1.460052-0.212189-1.858429,0.415833
			l-1.881653,2.966492l2.829987,1.795074l1.758179-2.771851C494.151276,503.953064,493.933228,502.978577,493.197723,502.512054z"/>
	</g>
	<g>
		<rect x="245.090927" y="562.166992" class="st1" width="36.947731" height="22.858438"/>
		<rect x="258.727844" y="571.84082" class="st1" width="9.673901" height="13.040504"/>
		<polygon class="st1" points="245.336014,561.940247 263.568359,550.845581 281.793579,561.951904 		"/>
		<path class="st1" d="M277.704559,553.637695l-0.361084-0.229004c-0.628021-0.398376-1.460052-0.212219-1.858429,0.415833
			l-1.881653,2.966492l2.829987,1.795044l1.758179-2.77179C278.658112,555.078735,278.440063,554.104248,277.704559,553.637695z"/>
	</g>
	<g>
		<rect x="71.068802" y="399.213379" class="st1" width="36.947731" height="22.858438"/>
		<rect x="84.705719" y="408.887207" class="st1" width="9.673901" height="13.040504"/>
		<polygon class="st1" points="71.313881,398.986603 89.546227,387.891968 107.771454,398.998291 		"/>
		<path class="st1" d="M103.682419,390.684082l-0.361061-0.229034c-0.628021-0.398346-1.460068-0.212158-1.858429,0.415863
			l-1.881668,2.966461l2.829971,1.795074l1.758209-2.77182C104.635986,392.125092,104.417938,391.150635,103.682419,390.684082z"/>
	</g>
</g>
<g id="Warehouse">
	<g>
		<g>
			<rect x="293.222229" y="364.928162" class="st1" width="42.681187" height="30.719378"/>
			<rect x="303.006653" y="378.5224" class="st1" width="24.156839" height="17.125135"/>
			<rect x="303.006653" y="380.299622" class="st1" width="24.156839" height="2.712621"/>
			<rect x="303.006653" y="383.012238" class="st1" width="24.156839" height="2.712621"/>
			<rect x="303.006653" y="385.724854" class="st1" width="24.156839" height="2.712621"/>
			<rect x="303.006653" y="388.437469" class="st1" width="24.156839" height="2.712621"/>
			<rect x="303.006653" y="391.150085" class="st1" width="24.156839" height="2.712621"/>
			<rect x="291.106232" y="362.149323" class="st1" width="46.576508" height="2.778823"/>
		</g>
		<g>
			<rect x="326.626831" y="378.898438" class="st1" width="53.531277" height="38.528625"/>
			<rect x="338.89856" y="395.948517" class="st1" width="30.29781" height="21.478559"/>
			<rect x="338.89856" y="398.17749" class="st1" width="30.29781" height="3.402203"/>
			<rect x="338.89856" y="401.579712" class="st1" width="30.29781" height="3.402203"/>
			<rect x="338.89856" y="404.981903" class="st1" width="30.29781" height="3.402203"/>
			<rect x="338.89856" y="408.384094" class="st1" width="30.29781" height="3.402203"/>
			<rect x="338.89856" y="411.786316" class="st1" width="30.29781" height="3.402203"/>
			<rect x="323.9729" y="375.413208" class="st1" width="58.41684" height="3.485235"/>
		</g>
		<g>
			<rect x="281.573486" y="390.910431" class="st1" width="77.018036" height="46.870979"/>
			<rect x="299.229401" y="411.652222" class="st1" width="43.590923" height="26.129169"/>
			<rect x="299.229401" y="414.363861" class="st1" width="43.590923" height="4.13886"/>
			<rect x="299.229401" y="418.502716" class="st1" width="43.590923" height="4.13886"/>
			<rect x="299.229401" y="422.641571" class="st1" width="43.590923" height="4.13886"/>
			<rect x="299.229401" y="426.780426" class="st1" width="43.590923" height="4.13886"/>
			<rect x="299.229401" y="430.919312" class="st1" width="43.590923" height="4.13886"/>
			<rect x="277.755157" y="386.670563" class="st1" width="84.047134" height="4.23987"/>
		</g>
	</g>
</g>
<g id="Layer_4">
	<rect x="286.365723" y="395.320923" class="st2" width="81.717361" height="27.23912"/>
	<text transform="matrix(1 0 0 1 286.365631 404.680756)" class="st3 st4">Warehouse</text>
</g>
<g id="Truck">
	<g>
		<rect x="294.460846" y="415.357758" class="st1" width="60.189301" height="3.13193"/>
		<path class="st1" d="M320.797699,412.19339h-8.976898c-1.4263,0-2.58255,1.156219-2.58255,2.58255v3.746216h15.105988v-2.782227
			C324.344238,413.781219,322.756378,412.19339,320.797699,412.19339z"/>
		<rect x="297.066681" y="417.749176" class="st1" width="59.88118" height="4.188648"/>
		<ellipse class="st1" cx="340.826965" cy="413.82782" rx="7.613416" ry="8.110025"/>
		<path class="st1" d="M288.114197,451.961121h-1.672699h-6.359894c-0.433258,0-0.861084-0.102936-1.252319-0.30127
			l-0.515808-0.261475c-1.909576-0.968048-3.570892-2.41391-4.842194-4.214172l-3.594238-5.089783
			c-1.289093-1.825439-1.984894-4.036987-1.984894-6.308624v-14.905121c0-1.729462,1.33667-3.1315,2.985535-3.1315h23.203461
			c1.648865,0,2.985535,1.402039,2.985535,3.1315v1.135345v17.267609v5.889465c0,3.748932-2.897461,6.788025-6.471649,6.788025
			H288.114197z"/>
		<polygon class="st1" points="298.690216,417.749176 279.085144,417.749176 283.626007,425.102875 298.690216,425.102875 		"/>
		<ellipse class="st1" cx="288.068909" cy="413.82782" rx="7.613416" ry="8.110025"/>
		<ellipse class="st1" cx="288.068909" cy="413.82782" rx="3.806708" ry="4.055013"/>
		<ellipse class="st1" cx="340.826965" cy="413.82782" rx="3.806708" ry="4.055013"/>
		<path class="st1" d="M354.650116,421.937836h-55.9599v27.749969c0,5.700806,4.621399,10.322205,10.322174,10.322205h35.48526
			c5.607056,0,10.152466-4.54541,10.152466-10.152466V421.937836z"/>
		<path class="st1" d="M285.407379,447.460602h-0.908203h-3.453064c-0.235229,0-0.467499-0.039032-0.679932-0.114227
			l-0.28006-0.099152c-1.036774-0.367096-1.938782-0.915375-2.629028-1.598053l-1.951477-1.930084
			c-0.69989-0.6922-2.207245-2.642975-2.207245-3.504395v-4.618256c0-0.655823,1.855286-1.109192,2.750549-1.109192h12.598175
			c0.895233,0,1.620972,0.531647,1.620972,1.187469v0.430542v6.547974v2.233307c0,1.421631-1.573151,2.574066-3.513733,2.574066
			H285.407379z"/>
	</g>
</g>
</svg>
